<svg width="92" height="92" viewBox="0 0 92 92" fill="none" xmlns="http://www.w3.org/2000/svg">
<path d="M16.6665 27.6667C16.6665 19.5665 23.233 13 31.3332 13H60.6665C68.7667 13 75.3332 19.5665 75.3332 27.6667V90H16.6665V27.6667Z" stroke="#FF0000" stroke-width="4"/>
<rect x="29.5" y="49.6667" width="33" height="23.8333" rx="3.66667" stroke="#FF0000" stroke-width="4"/>
<path d="M75.3335 53.3333H82.6668C86.7169 53.3333 90.0002 56.6166 90.0002 60.6667V82.6667C90.0002 86.7167 86.7169 90 82.6668 90H75.3335V53.3333Z" stroke="#FF0000" stroke-width="4"/>
<path d="M16.6665 53.3333H9.33318C5.28309 53.3333 1.99984 56.6166 1.99984 60.6667V82.6667C1.99984 86.7167 5.28308 90 9.33317 90H16.6665V53.3333Z" stroke="#FF0000" stroke-width="4"/>
<path d="M35 13C35 6.92487 39.9249 2 46 2V2C52.0751 2 57 6.92487 57 13V13H35V13Z" stroke="#FF0000" stroke-width="4"/>
<line x1="2" y1="64.1667" x2="16.6667" y2="64.1667" stroke="#FF0000" stroke-width="4"/>
<line x1="75.3335" y1="64.1667" x2="90.0002" y2="64.1667" stroke="#FF0000" stroke-width="4"/>
<line x1="29.5" y1="58.6667" x2="62.5" y2="58.6667" stroke="#FF0000" stroke-width="4"/>
<line x1="49.5" y1="66.1667" x2="49.5" y2="58.8333" stroke="#FF0000" stroke-width="4"/>
</svg>
