<svg xmlns="http://www.w3.org/2000/svg" width="406.494" height="190.294" viewBox="0 0 406.494 190.294">
  <g id="Group_2566" data-name="Group 2566" transform="translate(0 0)" opacity="0.031">
    <path id="Path_41" data-name="Path 41" d="M392.467,202.09V133.28h35.947V93.959H174.432A77.53,77.53,0,0,0,99.509,36.508c-42.772,0-77.588,34.6-77.588,77.124S56.737,190.76,99.509,190.76a77.534,77.534,0,0,0,74.923-57.48H296.18V202.09h39.556V133.28h17.156V202.09ZM99.509,151.448a37.807,37.807,0,1,1,38.027-37.816,37.959,37.959,0,0,1-38.027,37.816" transform="translate(-21.921 -11.795)" fill="#000f2b"/>
    <path id="Path_42" data-name="Path 42" d="M115.423,98.707A33.669,33.669,0,1,0,81.575,65.026a33.767,33.767,0,0,0,33.848,33.681" transform="translate(206.965 -31.368)" fill="#000f2b"/>
  </g>
</svg>
