<svg xmlns="http://www.w3.org/2000/svg" xmlns:xlink="http://www.w3.org/1999/xlink" width="144.1" height="43.354" viewBox="0 0 144.1 43.354">
  <defs>
    <clipPath id="clip-path">
      <rect id="Rectangle_153" data-name="Rectangle 153" width="70.393" height="39.081" fill="none"/>
    </clipPath>
  </defs>
  <g id="Group_2531" data-name="Group 2531" transform="translate(-142 -27)">
    <path id="Subtraction_14" data-name="Subtraction 14" d="M57.146,43.355H6a6.007,6.007,0,0,1-6-6V6A6.007,6.007,0,0,1,6,0H57.146a6.007,6.007,0,0,1,6,6V37.354A6.007,6.007,0,0,1,57.146,43.355ZM43.037,24.4h1.838v7.412h4.238V24.4h3.85V20.163h-27.2a8.31,8.31,0,1,0,0,4.236H38.8v7.412h4.236V24.4Zm.918-13.088a3.627,3.627,0,1,0,3.627,3.626A3.63,3.63,0,0,0,43.955,11.311ZM17.735,26.357a4.073,4.073,0,1,1,4.073-4.074A4.077,4.077,0,0,1,17.735,26.357Z" transform="translate(141.999 26.999)" fill="#fff"/>
    <g id="Group_2517" data-name="Group 2517" transform="translate(215.706 28.665)">
      <g id="Group_2516" data-name="Group 2516" transform="translate(0 0)" clip-path="url(#clip-path)">
        <path id="Path_43" data-name="Path 43" d="M14.388,38.629,9.4,22.953H6.015V38.629H0V.407H9.663c6.982,0,9.771,3.38,9.771,11.27,0,4.725-.966,8.11-4.456,9.986l5.69,16.965ZM9.718,5.824h-3.7V17.532h3.7c3.22,0,3.706-2.684,3.706-5.855s-.486-5.853-3.706-5.853" transform="translate(0 0.024)" fill="#fff"/>
        <path id="Path_44" data-name="Path 44" d="M41.086,36.5c-1.56,1.505-4.078,2.523-7.463,2.523-3.33,0-5.8-.909-7.406-2.523-1.827-1.824-2.475-4.187-2.475-8.217h6.015c0,2.042.217,3.333,1.072,4.3a3.645,3.645,0,0,0,2.795,1.02,3.547,3.547,0,0,0,2.9-1.072c.8-.913,1.018-2.2,1.018-4.246,0-4.077-.645-5.1-3.6-6.277l-4.565-1.881c-3.864-1.609-5.316-3.7-5.316-9.609,0-3.435,1.023-6.229,3.112-8.105A9.637,9.637,0,0,1,33.731.1c3.058,0,5.317.8,6.87,2.308,1.988,1.931,2.684,4.67,2.684,8.322H37.274c0-1.717-.107-3.062-.913-4.08a3.163,3.163,0,0,0-2.685-1.13A3.2,3.2,0,0,0,31.1,6.6a5.692,5.692,0,0,0-1.025,3.757c0,3.115.486,4.081,3.17,5.153l4.511,1.825c4.563,1.879,5.8,4.3,5.8,10.741,0,3.917-.538,6.545-2.471,8.427" transform="translate(1.373 0.006)" fill="#fff"/>
        <path id="Path_45" data-name="Path 45" d="M57.865,39.081a9.12,9.12,0,0,1-7.406-3.216c-2.85-3.223-2.795-8.809-2.795-16.323s-.055-13.1,2.795-16.321A9.109,9.109,0,0,1,57.865,0a9.269,9.269,0,0,1,6.818,2.578,11.75,11.75,0,0,1,2.956,8H61.622c-.05-2.146-.537-5.15-3.757-5.15A3.075,3.075,0,0,0,55.022,6.87c-1.129,1.827-1.346,5.694-1.346,12.672s.217,10.843,1.346,12.671a3.073,3.073,0,0,0,2.842,1.447c2.58,0,3.757-2.255,3.757-4.886V22.816H57.865V17.878h9.773V28.455c0,6.925-4.083,10.626-9.773,10.626" transform="translate(2.756 0)" fill="#fff"/>
      </g>
    </g>
  </g>
</svg>
