<svg width="42" height="42" viewBox="0 0 42 42" fill="none" xmlns="http://www.w3.org/2000/svg">
<path fill-rule="evenodd" clip-rule="evenodd" d="M1.5 6C1.5 3.51471 3.51471 1.5 6 1.5H36C38.4852 1.5 40.5 3.51471 40.5 6V36C40.5 38.4852 38.4852 40.5 36 40.5H6C3.51471 40.5 1.5 38.4852 1.5 36V6ZM13.5 11.625C12.4645 11.625 11.625 12.4645 11.625 13.5C11.625 14.5355 12.4645 15.375 13.5 15.375H28.5C29.5355 15.375 30.375 14.5355 30.375 13.5C30.375 12.4645 29.5355 11.625 28.5 11.625H13.5ZM13.5 19.125C12.4645 19.125 11.625 19.9645 11.625 21C11.625 22.0355 12.4645 22.875 13.5 22.875H28.5C29.5355 22.875 30.375 22.0355 30.375 21C30.375 19.9645 29.5355 19.125 28.5 19.125H13.5ZM11.625 28.5C11.625 27.4645 12.4645 26.625 13.5 26.625H28.5C29.5355 26.625 30.375 27.4645 30.375 28.5C30.375 29.5355 29.5355 30.375 28.5 30.375H13.5C12.4645 30.375 11.625 29.5355 11.625 28.5Z" fill="black"/>
</svg>
