<svg xmlns="http://www.w3.org/2000/svg" width="30.75" height="41" viewBox="0 0 30.75 41">
  <path id="Контур_6" data-name="Контур 6" d="M17.938-35.875H12.813A12.812,12.812,0,0,0,0-23.062V-7.687A12.812,12.812,0,0,0,12.813,5.125h5.125A12.812,12.812,0,0,0,30.75-7.687V-23.062A12.81,12.81,0,0,0,17.938-35.875ZM29.469-7.687A11.545,11.545,0,0,1,17.938,3.844H12.813A11.545,11.545,0,0,1,1.281-7.687V-23.062A11.545,11.545,0,0,1,12.813-34.594h5.125A11.545,11.545,0,0,1,29.469-23.062ZM15.375-28.26A2.568,2.568,0,0,0,12.813-25.7v2.49A2.6,2.6,0,0,0,15.375-20.5a2.569,2.569,0,0,0,2.563-2.562V-25.7A2.618,2.618,0,0,0,15.375-28.26Zm1.281,5.2a1.283,1.283,0,0,1-1.281,1.281,1.284,1.284,0,0,1-1.281-1.281v-2.562a1.283,1.283,0,0,1,1.281-1.281,1.283,1.283,0,0,1,1.281,1.281Z" transform="translate(0 35.875)" fill="#fff"/>
</svg>
