<svg xmlns="http://www.w3.org/2000/svg" width="188" height="34.182" viewBox="0 0 188 34.182">
  <g id="logoipsum-325" opacity="0.4">
    <path id="Path_56" data-name="Path 56" d="M17.377,34.182A17.234,17.234,0,0,0,34.751,17.091V5.127A5.17,5.17,0,0,0,29.539,0H18.246V7.5a9.15,9.15,0,0,0,1.018,4.939,8.692,8.692,0,0,0,6,3.954l.333.053a.68.68,0,0,1,0,1.294l-.333.053a8.617,8.617,0,0,0-7.173,7.056l-.054.327a.7.7,0,0,1-1.315,0l-.054-.327a8.542,8.542,0,0,0-4.019-5.9,9.563,9.563,0,0,0-5.021-1H.024A17.254,17.254,0,0,0,17.377,34.182Z" transform="translate(-0.003 0)" fill="#002846"/>
    <path id="Path_57" data-name="Path 57" d="M0,16.215H7.5a9.288,9.288,0,0,0,4.939-1,8.555,8.555,0,0,0,2.8-2.794,9.254,9.254,0,0,0,1-4.933V0H5.127A5.124,5.124,0,0,0,0,5.12ZM39.7,1.707A1.709,1.709,0,1,1,37.989,0,1.708,1.708,0,0,1,39.7,1.707ZM180.917,10.33c4.778,0,7.083,3.333,7.083,7.192v7.25h-5V18.382c0-1.749-.639-3.193-2.472-3.193s-2.444,1.444-2.444,3.193v6.389h-5V18.382c0-1.749-.611-3.193-2.445-3.193s-2.472,1.444-2.472,3.193v6.389h-5v-7.25c0-3.86,2.3-7.192,7.082-7.192,2.611,0,4.5,1.027,5.361,2.721a5.825,5.825,0,0,1,5.305-2.722Zm-26.734,10c1.611,0,2.306-1.472,2.306-3.222V10.884h5v6.832c0,4.083-2.388,7.472-7.3,7.472s-7.306-3.388-7.306-7.472V10.884h5v6.221C151.878,18.855,152.571,20.328,154.183,20.328Zm-14.657,4.887c-3.139,0-5.167-1.083-6.361-3.193l3.611-2.028a2.558,2.558,0,0,0,2.5,1.333c1.028,0,1.5-.361,1.5-.806,0-1.694-7.333.028-7.333-5.359,0-2.611,2.222-4.722,6-4.722,3.305,0,5.111,1.61,5.917,3.166l-3.611,2.055a2.3,2.3,0,0,0-2.194-1.333c-.722,0-1.111.306-1.111.722,0,1.722,7.333.139,7.333,5.36C145.775,23.327,142.914,25.215,139.526,25.215Zm-17.469,5.944h-5V17.8c0-4.25,3.194-7.332,7.639-7.332a7.432,7.432,0,0,1,7.639,7.332,6.962,6.962,0,0,1-7.361,7.388,6.171,6.171,0,0,1-2.917-.778v6.75ZM124.7,20.494a2.667,2.667,0,1,0-2.639-2.666A2.592,2.592,0,0,0,124.7,20.494ZM112.049,9.413a3,3,0,1,1,3-3A3.023,3.023,0,0,1,112.049,9.413Zm-2.5,1.471h5V24.772h-5Zm-9.593,14.3a7.378,7.378,0,1,1,7.639-7.388A7.46,7.46,0,0,1,99.956,25.188Zm0-4.694a2.68,2.68,0,1,0-2.639-2.667A2.592,2.592,0,0,0,99.956,20.494ZM82.876,31.576c-3.444,0-5.944-1.528-7.222-4.25L79.793,25.1a3.091,3.091,0,0,0,3,1.917,3.017,3.017,0,0,0,3.14-3.139,4.867,4.867,0,0,1-3.305,1.027,6.912,6.912,0,0,1-6.973-7.138,7.411,7.411,0,0,1,7.64-7.3c4.444,0,7.639,3.083,7.639,7.332v5.5c0,5-3.473,8.276-8.056,8.276Zm.333-11.359a2.5,2.5,0,0,0,2.639-2.556,2.643,2.643,0,0,0-5.278,0,2.517,2.517,0,0,0,2.639,2.554ZM67.173,25.188A7.378,7.378,0,1,1,74.812,17.8a7.461,7.461,0,0,1-7.639,7.388Zm0-4.694a2.68,2.68,0,1,0-2.639-2.667A2.592,2.592,0,0,0,67.173,20.494ZM50.429,6.025V20.05h8.278v4.722H49.735c-3.166,0-4.444-1.667-4.444-4.305V6.025Z" transform="translate(0 0)" fill="#002846"/>
  </g>
</svg>
