<svg xmlns="http://www.w3.org/2000/svg" xmlns:xlink="http://www.w3.org/1999/xlink" width="142.925" height="43.003" viewBox="0 0 142.925 43.003">
  <defs>
    <clipPath id="clip-path">
      <rect id="Rectangle_153" data-name="Rectangle 153" width="69.82" height="38.762" fill="#002846"/>
    </clipPath>
  </defs>
  <g id="Group_2541" data-name="Group 2541" transform="translate(-142.001 -30.998)">
    <g id="Group_2530" data-name="Group 2530" transform="translate(0 4)">
      <path id="Subtraction_15" data-name="Subtraction 15" d="M57,43H6a6.007,6.007,0,0,1-6-6V6A6.007,6.007,0,0,1,6,0H57a6.007,6.007,0,0,1,6,6V37A6.007,6.007,0,0,1,57,43ZM42.937,24.2h1.833v7.353H49V24.2h3.841V20H25.7a8.243,8.243,0,1,0,0,4.2h13.01v7.353h4.226V24.2Zm.916-12.982a3.6,3.6,0,1,0,3.618,3.6A3.611,3.611,0,0,0,43.853,11.217ZM17.695,26.14A4.04,4.04,0,1,1,21.758,22.1,4.056,4.056,0,0,1,17.695,26.14Z" transform="translate(142 27)" fill="#002846"/>
      <g id="Group_2517" data-name="Group 2517" transform="translate(215.106 28.652)">
        <g id="Group_2516" data-name="Group 2516" transform="translate(0 0)" clip-path="url(#clip-path)">
          <path id="Path_43" data-name="Path 43" d="M14.27,38.317,9.322,22.769H5.966V38.317H0V.407H9.585c6.925,0,9.692,3.352,9.692,11.178,0,4.687-.958,8.044-4.419,9.9L20.5,38.317ZM9.639,5.78H5.966V17.393H9.639c3.194,0,3.675-2.662,3.675-5.807S12.833,5.78,9.639,5.78" transform="translate(0 0.02)" fill="#002846"/>
          <path id="Path_44" data-name="Path 44" d="M40.945,36.2c-1.548,1.493-4.045,2.5-7.4,2.5-3.3,0-5.749-.9-7.346-2.5-1.812-1.809-2.455-4.153-2.455-8.15h5.966c0,2.025.215,3.306,1.063,4.263a3.615,3.615,0,0,0,2.772,1.011,3.518,3.518,0,0,0,2.877-1.063c.794-.905,1.009-2.187,1.009-4.212,0-4.044-.64-5.055-3.566-6.226l-4.527-1.865c-3.833-1.6-5.272-3.674-5.272-9.531,0-3.407,1.015-6.178,3.087-8.039A9.559,9.559,0,0,1,33.65.1c3.033,0,5.273.8,6.814,2.289,1.971,1.915,2.662,4.632,2.662,8.254H37.164c0-1.7-.106-3.037-.905-4.047A3.137,3.137,0,0,0,33.6,5.478a3.173,3.173,0,0,0-2.552,1.066,5.645,5.645,0,0,0-1.017,3.727c0,3.09.482,4.048,3.144,5.111l4.474,1.81c4.526,1.863,5.751,4.261,5.751,10.654,0,3.885-.534,6.491-2.451,8.358" transform="translate(1.168 0.005)" fill="#002846"/>
          <path id="Path_45" data-name="Path 45" d="M57.782,38.762a9.045,9.045,0,0,1-7.346-3.19c-2.827-3.2-2.772-8.737-2.772-16.19S47.609,6.389,50.436,3.194A9.035,9.035,0,0,1,57.782,0a9.194,9.194,0,0,1,6.762,2.557,11.654,11.654,0,0,1,2.932,7.93H61.508c-.049-2.129-.533-5.108-3.727-5.108a3.05,3.05,0,0,0-2.819,1.434c-1.12,1.812-1.335,5.648-1.335,12.568s.215,10.754,1.335,12.567a3.048,3.048,0,0,0,2.819,1.435c2.559,0,3.727-2.237,3.727-4.846V22.63H57.782v-4.9h9.694v10.49c0,6.868-4.05,10.539-9.694,10.539" transform="translate(2.346 0)" fill="#002846"/>
        </g>
      </g>
    </g>
  </g>
</svg>
