<svg xmlns="http://www.w3.org/2000/svg" width="116.482" height="26.473" viewBox="0 0 116.482 26.473">
  <g id="logoipsum-317_1_" data-name="logoipsum-317 (1)" opacity="0.4">
    <path id="Path_70" data-name="Path 70" d="M9.927,18.531a3.309,3.309,0,0,1-3.309-3.309V0H0V15.222A9.928,9.928,0,0,0,9.927,25.15h7.28V18.531ZM29.782,6.618a5.956,5.956,0,1,0,5.956,5.956A5.956,5.956,0,0,0,29.782,6.618ZM17.208,12.575A12.575,12.575,0,1,1,29.782,25.15,12.575,12.575,0,0,1,17.208,12.575ZM101.26,6.618a5.956,5.956,0,1,0,5.956,5.956A5.956,5.956,0,0,0,101.26,6.618ZM88.685,12.575A12.575,12.575,0,1,1,101.26,25.15,12.575,12.575,0,0,1,88.685,12.575ZM56.256,0a12.575,12.575,0,1,0,0,25.15H74.787a12.569,12.569,0,0,0,3.742-.567l3.538,1.89,3.817-7.15a12.579,12.579,0,0,0,1.477-5.913v-.835A12.575,12.575,0,0,0,74.787,0ZM80.743,12.575a5.956,5.956,0,0,0-5.956-5.956H56.256a5.956,5.956,0,1,0,0,11.913H74.787a5.957,5.957,0,0,0,5.956-5.91Z" transform="translate(0 0)" fill="#002846" fill-rule="evenodd"/>
    <path id="Path_71" data-name="Path 71" d="M174.309,1.655A1.655,1.655,0,1,1,172.655,0a1.655,1.655,0,0,1,1.655,1.655Z" transform="translate(-57.827 0)" fill="#002846"/>
  </g>
</svg>
