<svg xmlns="http://www.w3.org/2000/svg" width="124" height="34.72" viewBox="0 0 124 34.72">
  <g id="layer1" transform="translate(-1.004 -753.543)">
    <g id="g3337" transform="translate(1.004 753.543)">
      <g id="g3339" transform="translate(0 1.014)">
        <path id="polygon3341" d="M896.066,316.493l4.4-20.809,1.674,20.809h9.485l-4.4-33.029H897.08l-4.734,19.817-4.734-19.817H877.468l-4.4,33.029h9.468l1.691-20.809,4.4,20.809Z" transform="translate(-813.158 -283.464)" fill="#002846"/>
        <g id="g3343" transform="translate(102.359 0)">
          <path id="polygon3345" d="M1245.037,283.464h-9.13v33.029h21.641v-6.936h-12.511Z" transform="translate(-1235.907 -283.464)" fill="#002846"/>
        </g>
        <g id="g3347">
          <path id="path3349" d="M375.972,283.464h-11.5l-10.144,33.029h10.144l1.353-5.945h8.792l1.353,5.945h10.144Zm-5.748,7.266,3.043,13.542H367.18Z" transform="translate(-354.331 -283.464)" fill="#002846"/>
        </g>
      </g>
      <g id="g3351" transform="translate(32.883 0)">
        <path id="path3353" d="M663.889,285.443c-8.4-7.349-21.513-4.361-21.641,2.367-1.906-12.483,13.189-15.089,21.64-11.159A54.313,54.313,0,0,1,663.889,285.443Z" transform="translate(-641.571 -274.96)" fill="#002846"/>
        <path id="path3355" d="M653.141,346.656c-2.117-.8-5.2-1.533-5.2-3.872,0-.955.4-1.992,2.365-2.626-6.763.657-9.018,8.651-1.538,12.624,1.3.692,3.567,1.427,3.567,3.8,0,2.777-3.14,3.781-5.205,3.738-3.431-.07-6.189-1.235-9.335-3.41V364.8c3.723,1.557,9.786,3.353,15.865,1.537,4.913-1.468,9.158-5.475,9.158-9.751C662.817,349.63,656.6,347.969,653.141,346.656Z" transform="translate(-637.794 -332.381)" fill="#002846"/>
      </g>
    </g>
  </g>
</svg>
