<svg xmlns="http://www.w3.org/2000/svg" width="170" height="35" viewBox="0 0 170 35">
  <g id="logoipsum-297" opacity="0.4">
    <path id="Path_58" data-name="Path 58" d="M22.361,10.225A8.75,8.75,0,0,0,17.5,8.75V0A17.5,17.5,0,1,1,0,17.5H8.75a8.75,8.75,0,1,0,13.611-7.275Z" transform="translate(0 0)" fill="#002846" fill-rule="evenodd"/>
    <path id="Path_59" data-name="Path 59" d="M8.75,0a8.75,8.75,0,0,1-.666,3.348,8.75,8.75,0,0,1-1.9,2.839,8.75,8.75,0,0,1-2.839,1.9A8.75,8.75,0,0,1,0,8.75V17.5a17.5,17.5,0,0,0,6.7-1.332,17.5,17.5,0,0,0,5.677-3.794A17.5,17.5,0,0,0,16.168,6.7,17.5,17.5,0,0,0,17.5,0Z" transform="translate(0)" fill="#002846" fill-rule="evenodd"/>
    <path id="Path_60" data-name="Path 60" d="M125.013,14.452h-4.246V27.938h4.246Z" transform="translate(-19.002 -1.807)" fill="#002846"/>
    <path id="Path_61" data-name="Path 61" d="M121.216,11a2.257,2.257,0,0,0,1.664.666A2.168,2.168,0,0,0,124.517,11a2.371,2.371,0,0,0,.639-1.665,2.309,2.309,0,0,0-.639-1.665A2.167,2.167,0,0,0,122.88,7a2.257,2.257,0,0,0-1.664.666,2.309,2.309,0,0,0-.639,1.665A2.371,2.371,0,0,0,121.216,11Z" transform="translate(-18.98 -0.875)" fill="#002846"/>
    <path id="Path_62" data-name="Path 62" d="M51.156,27.066V7.476h4.357V23.237H64.2v3.829Z" transform="translate(-8.138 -0.934)" fill="#002846"/>
    <path id="Path_63" data-name="Path 63" d="M73.973,28.2a7.8,7.8,0,0,1-3.774-.916,7.126,7.126,0,0,1-2.636-2.553,6.846,6.846,0,0,1-.971-3.607,6.7,6.7,0,0,1,.971-3.58,6.983,6.983,0,0,1,2.636-2.5,7.519,7.519,0,0,1,3.774-.944,7.7,7.7,0,0,1,3.774.916,6.915,6.915,0,0,1,2.636,2.525,6.7,6.7,0,0,1,.971,3.58,6.845,6.845,0,0,1-.971,3.607,7.125,7.125,0,0,1-2.636,2.553A7.7,7.7,0,0,1,73.973,28.2Zm0-3.857a3.239,3.239,0,0,0,1.609-.388,2.72,2.72,0,0,0,1.054-1.138,3.622,3.622,0,0,0,.389-1.693,3.3,3.3,0,0,0-.389-1.637,2.72,2.72,0,0,0-1.082-1.11,2.922,2.922,0,0,0-1.582-.416,3.014,3.014,0,0,0-1.582.416,2.721,2.721,0,0,0-1.082,1.11,3.457,3.457,0,0,0-.388,1.665,3.562,3.562,0,0,0,.388,1.665,2.911,2.911,0,0,0,1.082,1.138A3.181,3.181,0,0,0,73.973,24.343Z" transform="translate(-10.618 -1.763)" fill="#002846" fill-rule="evenodd"/>
    <path id="Path_64" data-name="Path 64" d="M86.921,33.171a9.29,9.29,0,0,0,3.913.777,8.4,8.4,0,0,0,3.857-.86A6.664,6.664,0,0,0,97.355,30.7a6.576,6.576,0,0,0,.972-3.607V14.413H94.163v.906a4.486,4.486,0,0,0-1.054-.656,5.569,5.569,0,0,0-2.47-.527,6.222,6.222,0,0,0-5.578,3.274A6.851,6.851,0,0,0,84.23,20.8a6.952,6.952,0,0,0,.832,3.385,6.348,6.348,0,0,0,2.275,2.414,6.172,6.172,0,0,0,3.3.888,5.683,5.683,0,0,0,2.47-.527,4.947,4.947,0,0,0,.971-.6V27.2a2.717,2.717,0,0,1-.916,2.192,3.626,3.626,0,0,1-2.47.777A4.982,4.982,0,0,1,88.5,29.73a5.059,5.059,0,0,1-1.609-1.3l-2.608,2.608A6.287,6.287,0,0,0,86.921,33.171ZM92.97,23.32a2.879,2.879,0,0,1-1.526.389,3.028,3.028,0,0,1-1.554-.389,2.738,2.738,0,0,1-1-1.054,3.143,3.143,0,0,1-.361-1.471,3.094,3.094,0,0,1,.361-1.5,2.678,2.678,0,0,1,1.027-1.054,2.972,2.972,0,0,1,1.526-.389,2.879,2.879,0,0,1,1.526.389,2.493,2.493,0,0,1,1,1.054,3.293,3.293,0,0,1,0,3A2.537,2.537,0,0,1,92.97,23.32Z" transform="translate(-13.418 -1.767)" fill="#002846" fill-rule="evenodd"/>
    <path id="Path_65" data-name="Path 65" d="M109.5,28.2a7.8,7.8,0,0,1-3.774-.916,7.124,7.124,0,0,1-2.636-2.553,6.845,6.845,0,0,1-.971-3.607,6.7,6.7,0,0,1,.971-3.58,6.981,6.981,0,0,1,2.636-2.5A7.517,7.517,0,0,1,109.5,14.1a7.7,7.7,0,0,1,3.773.916,6.914,6.914,0,0,1,2.636,2.525,6.7,6.7,0,0,1,.971,3.58,6.845,6.845,0,0,1-.971,3.607,7.123,7.123,0,0,1-2.636,2.553A7.7,7.7,0,0,1,109.5,28.2Zm0-3.857a3.24,3.24,0,0,0,1.609-.388,2.723,2.723,0,0,0,1.054-1.138,3.622,3.622,0,0,0,.388-1.693,3.3,3.3,0,0,0-.388-1.637,2.718,2.718,0,0,0-1.082-1.11,2.921,2.921,0,0,0-1.581-.416,3.012,3.012,0,0,0-1.582.416,2.718,2.718,0,0,0-1.082,1.11,3.457,3.457,0,0,0-.389,1.665,3.562,3.562,0,0,0,.389,1.665,2.908,2.908,0,0,0,1.082,1.138A3.18,3.18,0,0,0,109.5,24.343Z" transform="translate(-16.282 -1.763)" fill="#002846" fill-rule="evenodd"/>
    <path id="Path_66" data-name="Path 66" d="M136.171,28.176a5.869,5.869,0,0,1-2.5-.527,5.305,5.305,0,0,1-1.081-.663v6.6H128.4V14.413h4.245v.931a5.25,5.25,0,0,1,1.026-.653,5.621,5.621,0,0,1,2.5-.555,6.311,6.311,0,0,1,5.716,3.413,7.422,7.422,0,0,1,.86,3.607,7.422,7.422,0,0,1-.86,3.607,6.311,6.311,0,0,1-5.716,3.413Zm-.776-3.829a2.936,2.936,0,0,0,2.664-1.554,3.4,3.4,0,0,0,.389-1.637,3.457,3.457,0,0,0-.389-1.665,2.719,2.719,0,0,0-1.082-1.11,2.869,2.869,0,0,0-1.554-.416,3.011,3.011,0,0,0-1.581.416,2.772,2.772,0,0,0-1.054,1.11,3.457,3.457,0,0,0-.389,1.665,3.61,3.61,0,0,0,.361,1.637,2.909,2.909,0,0,0,1.082,1.138A2.96,2.96,0,0,0,135.395,24.347Z" transform="translate(-20.462 -1.767)" fill="#002846" fill-rule="evenodd"/>
    <path id="Path_67" data-name="Path 67" d="M149,27.911a9.267,9.267,0,0,0,2.358.305,6.265,6.265,0,0,0,4-1.165,3.767,3.767,0,0,0,1.5-3.136,3.919,3.919,0,0,0-.472-2.053,3.67,3.67,0,0,0-1.221-1.276,7.289,7.289,0,0,0-1.582-.749q-.832-.277-1.581-.472a5.723,5.723,0,0,1-1.221-.444.749.749,0,0,1-.472-.666.626.626,0,0,1,.361-.583,2.1,2.1,0,0,1,1.082-.222,4.153,4.153,0,0,1,1.526.305,3.548,3.548,0,0,1,1.443,1.054l2.414-2.442a5.573,5.573,0,0,0-2.386-1.748,8.034,8.034,0,0,0-3.163-.61,6.85,6.85,0,0,0-2.858.555,4.453,4.453,0,0,0-1.887,1.526,3.8,3.8,0,0,0-.666,2.248,3.959,3.959,0,0,0,.472,2.026,3.509,3.509,0,0,0,1.221,1.221,7.09,7.09,0,0,0,1.582.694q.832.25,1.582.472a4.811,4.811,0,0,1,1.221.472.8.8,0,0,1,.5.749.677.677,0,0,1-.417.61,2.335,2.335,0,0,1-1.137.222,5.058,5.058,0,0,1-2-.389,4.865,4.865,0,0,1-1.582-1.138L145.2,25.718a7.534,7.534,0,0,0,1.665,1.332A9.391,9.391,0,0,0,149,27.911Z" transform="translate(-23.066 -1.751)" fill="#002846"/>
    <path id="Path_68" data-name="Path 68" d="M166.464,28.243a7.06,7.06,0,0,1-3.3-.749,5.794,5.794,0,0,1-2.22-2.109,5.978,5.978,0,0,1-.805-3.108V14.452h4.246v7.77a2.91,2.91,0,0,0,.222,1.193,1.83,1.83,0,0,0,.721.777,2.208,2.208,0,0,0,1.137.277,1.972,1.972,0,0,0,1.5-.583,2.381,2.381,0,0,0,.555-1.665v-7.77h4.245v7.8a6.032,6.032,0,0,1-.8,3.136,5.794,5.794,0,0,1-2.22,2.109A6.893,6.893,0,0,1,166.464,28.243Z" transform="translate(-26.38 -1.807)" fill="#002846"/>
    <path id="Path_69" data-name="Path 69" d="M181.225,14.413h-4.245V27.9h4.245V20.018a2.268,2.268,0,0,1,.277-1.165,2.023,2.023,0,0,1,.8-.721,2.3,2.3,0,0,1,1.138-.278,2.122,2.122,0,0,1,1.526.583,1.981,1.981,0,0,1,.639,1.582V27.9h4.245V20.018a2.268,2.268,0,0,1,.277-1.165,2.017,2.017,0,0,1,.805-.721,2.3,2.3,0,0,1,1.137-.278,2.122,2.122,0,0,1,1.526.583,1.984,1.984,0,0,1,.638,1.582V27.9h4.246V19.546a5.475,5.475,0,0,0-.722-2.886,4.635,4.635,0,0,0-1.914-1.859,5.542,5.542,0,0,0-2.747-.666,5.884,5.884,0,0,0-2.858.694,5.184,5.184,0,0,0-1.45,1.141,4.718,4.718,0,0,0-1.409-1.2,4.971,4.971,0,0,0-2.524-.638,5.615,5.615,0,0,0-2.691.638,4.65,4.65,0,0,0-.944.636Z" transform="translate(-28.485 -1.767)" fill="#002846"/>
  </g>
</svg>
