<svg xmlns="http://www.w3.org/2000/svg" width="184" height="25.847" viewBox="0 0 184 25.847">
  <g id="svgexport-1_12_" data-name="svgexport-1 (12)" transform="translate(0.039 -41.3)" opacity="0.4">
    <path id="Path_49" data-name="Path 49" d="M22.07,65.493c.34,1.379.124,1.723-1.331,1.723h-.557c-1.424,0-1.826-.345-2.259-1.723L16.5,60.167H5.667L4.244,65.493c-.433,1.379-.8,1.723-2.259,1.723H1.427C0,67.216-.244,66.871.1,65.493L4.863,47.979a13.936,13.936,0,0,1,2.259-5.2c.774-.909,2.1-1.379,3.992-1.379s3.219.47,3.992,1.379a14.617,14.617,0,0,1,2.2,5.2ZM6.627,56.438h8.944l-2.29-8.522c-.619-2.318-.928-2.82-2.166-2.82s-1.578.5-2.2,2.82Z" transform="translate(0 -0.069)" fill="#002846"/>
    <path id="Path_50" data-name="Path 50" d="M257.511,41.331c6,0,8.48,2.976,8.48,8.3,0,5.514-2.816,8.3-8.48,8.3h-5.725v7.3c0,1.441-.34,1.817-1.8,1.817h-.5c-1.424,0-1.795-.345-1.795-1.817V45.78c0-3.133,1.331-4.48,4.426-4.48h5.385ZM253.3,45.216a1.331,1.331,0,0,0-1.516,1.5v7.331h5.725c3.281,0,4.426-1.285,4.426-4.417,0-3.1-1.114-4.418-4.426-4.418Z" transform="translate(-171.068)" fill="#002846"/>
    <path id="Path_51" data-name="Path 51" d="M319,43.117c0-1.441.34-1.817,1.8-1.817h.5c1.424,0,1.8.345,1.8,1.817V61.664a1.343,1.343,0,0,0,1.516,1.5h7.3c1.393,0,1.733.345,1.733,1.754v.345c0,1.41-.34,1.754-1.733,1.754h-8.48c-3.095,0-4.426-1.347-4.426-4.48Z" transform="translate(-220.302)" fill="#002846"/>
    <path id="Path_52" data-name="Path 52" d="M381.554,55.586v6.078a1.343,1.343,0,0,0,1.517,1.5h9.5c1.393,0,1.733.345,1.733,1.754v.345c0,1.41-.34,1.754-1.733,1.754H381.926c-3.095,0-4.426-1.347-4.426-4.48V45.78c0-3.133,1.331-4.48,4.426-4.48h10.646c1.393,0,1.733.345,1.733,1.754V43.4c0,1.41-.34,1.754-1.733,1.754h-9.5a1.331,1.331,0,0,0-1.517,1.5V51.67h9.439c1.393,0,1.733.345,1.733,1.754v.345c0,1.41-.34,1.754-1.733,1.754l-9.439.063Z" transform="translate(-260.697)" fill="#002846"/>
    <path id="Path_53" data-name="Path 53" d="M447.159,64.427c-1.516-1.754-2.259-4.324-2.259-7.676V51.739c0-3.384.774-5.953,2.29-7.707s4.147-2.632,7.985-2.632,6.5.877,8.016,2.632,2.259,4.355,2.259,7.707v5.013c0,3.384-.743,5.921-2.259,7.676s-4.178,2.663-8.016,2.663C451.368,67.122,448.676,66.213,447.159,64.427Zm14.174-12.689a8.076,8.076,0,0,0-1.238-4.981c-.8-.971-2.476-1.5-4.921-1.5s-4.116.5-4.921,1.5a8.076,8.076,0,0,0-1.238,4.981v5.013a8.034,8.034,0,0,0,1.238,4.95c.8,1,2.476,1.535,4.921,1.535s4.116-.5,4.921-1.535a8.034,8.034,0,0,0,1.238-4.95Z" transform="translate(-307.238 -0.069)" fill="#002846"/>
    <path id="Path_54" data-name="Path 54" d="M107.326,41.4c3.219,0,4.673,1.66,5.2,5.765L114.351,62.3c.155,1.222.279,1.41.867,1.41.5,0,.65-.188.8-1.41l1.826-15.132c.5-4.1,2.043-5.765,5.2-5.765,3.435,0,4.983,1.66,5.292,5.765L129.7,65.3c.124,1.441-.248,1.817-1.671,1.817h-.588c-1.424,0-1.8-.345-1.888-1.817L124.317,47.2c-.124-1.692-.464-2.13-1.362-2.13-.774,0-1.176.439-1.362,2.13l-2.1,15.759c-.433,3.1-1.362,4.167-4.3,4.167-2.6,0-3.869-1.034-4.3-4.167L108.75,47.2c-.186-1.692-.588-2.13-1.393-2.13H107.3c-.8,0-1.207.439-1.393,2.13l-2.135,15.759c-.433,3.133-1.7,4.167-4.3,4.167-2.94,0-3.869-1.065-4.3-4.167L93.059,47.2c-.186-1.692-.588-2.13-1.362-2.13-.9,0-1.238.439-1.362,2.13L89.1,65.3c-.124,1.441-.464,1.817-1.888,1.817h-.588c-1.424,0-1.795-.345-1.671-1.817l1.362-18.14c.309-4.1,1.857-5.765,5.292-5.765,3.126,0,4.673,1.66,5.2,5.765L98.63,62.3c.155,1.222.309,1.41.8,1.41.588,0,.712-.188.867-1.41l1.826-15.132C102.653,43.029,104.107,41.4,107.326,41.4Z" transform="translate(-58.672 -0.069)" fill="#002846"/>
    <path id="Path_55" data-name="Path 55" d="M548.926,43.182c0-1.441-.34-1.817-1.8-1.786h-.4c-1.424,0-1.8.345-1.764,1.817V62.857a.87.87,0,0,1-.867.877,1.018,1.018,0,0,1-.99-.689s-4.921-17.7-4.952-17.733c-.959-2.976-2.1-3.916-4.8-3.916h-.309c-3.219,0-4.549,1.911-4.549,5.169V65.332c0,1.441.34,1.817,1.795,1.786h.4c1.424,0,1.795-.345,1.764-1.817V45.657a.87.87,0,0,1,.867-.877.934.934,0,0,1,.836.658l5.076,17.733c.929,2.914,2.1,3.916,4.8,3.916h.31c3.219,0,4.549-1.911,4.549-5.169l.031-18.735Z" transform="translate(-364.965 -0.065)" fill="#002846"/>
  </g>
</svg>
